<?xml version="1.0" encoding="utf-8"?>
<!-- Generator: Adobe Illustrator 23.0.1, SVG Export Plug-In . SVG Version: 6.00 Build 0)  -->
<svg version="1.1" id="Layer_1" xmlns="http://www.w3.org/2000/svg" xmlns:xlink="http://www.w3.org/1999/xlink" x="0px" y="0px"
	 viewBox="0 0 595.28 841.89" style="enable-background:new 0 0 595.28 841.89;" xml:space="preserve">
<style type="text/css">
	.st0{fill:#FFDEA9;stroke:#FFFFFF;stroke-width:4;stroke-miterlimit:10;}
	.st1{opacity:0.1;fill:none;stroke:#A97C50;stroke-miterlimit:10;}
	.st2{fill:none;stroke:#FFFFFF;stroke-width:4;stroke-miterlimit:10;}
	.st3{fill:none;stroke:#FFFFFF;stroke-width:3;stroke-miterlimit:10;}
	.st4{fill:none;stroke:#FFFFFF;stroke-width:4;stroke-miterlimit:10;stroke-dasharray:5.92,5.92;}
</style>
<rect x="-44.24" y="118.29" width="695.95" height="695.95"/>
<g>
	<g>

			<rect x="0.98" y="112.16" transform="matrix(6.123234e-17 -1 1 6.123234e-17 -136.331 743.8055)" class="st0" width="605.52" height="655.82"/>
		<g>
			<line class="st1" x1="-23.64" y1="137.31" x2="-23.64" y2="742.83"/>
			<line class="st1" x1="-12.9" y1="137.31" x2="-12.9" y2="742.83"/>
			<line class="st1" x1="-2.17" y1="137.31" x2="-2.17" y2="742.83"/>
			<line class="st1" x1="8.57" y1="137.31" x2="8.57" y2="742.83"/>
			<line class="st1" x1="19.3" y1="137.31" x2="19.3" y2="742.83"/>
			<line class="st1" x1="30.03" y1="137.31" x2="30.03" y2="742.83"/>
			<line class="st1" x1="40.77" y1="137.31" x2="40.77" y2="742.83"/>
			<line class="st1" x1="51.5" y1="137.31" x2="51.5" y2="742.83"/>
			<line class="st1" x1="62.23" y1="137.31" x2="62.23" y2="742.83"/>
			<line class="st1" x1="72.97" y1="137.31" x2="72.97" y2="742.83"/>
			<line class="st1" x1="83.7" y1="137.31" x2="83.7" y2="742.83"/>
			<line class="st1" x1="94.44" y1="137.31" x2="94.44" y2="742.83"/>
			<line class="st1" x1="105.17" y1="137.31" x2="105.17" y2="742.83"/>
			<line class="st1" x1="115.9" y1="137.31" x2="115.9" y2="742.83"/>
			<line class="st1" x1="126.64" y1="137.31" x2="126.64" y2="742.83"/>
			<line class="st1" x1="137.37" y1="137.31" x2="137.37" y2="742.83"/>
			<line class="st1" x1="148.1" y1="137.31" x2="148.1" y2="742.83"/>
			<line class="st1" x1="158.84" y1="137.31" x2="158.84" y2="742.83"/>
			<line class="st1" x1="169.57" y1="137.31" x2="169.57" y2="742.83"/>
			<line class="st1" x1="180.3" y1="137.31" x2="180.3" y2="742.83"/>
			<line class="st1" x1="191.04" y1="137.31" x2="191.04" y2="742.83"/>
			<line class="st1" x1="201.77" y1="137.31" x2="201.77" y2="742.83"/>
			<line class="st1" x1="212.51" y1="137.31" x2="212.51" y2="742.83"/>
			<line class="st1" x1="223.24" y1="137.31" x2="223.24" y2="742.83"/>
			<line class="st1" x1="233.97" y1="137.31" x2="233.97" y2="742.83"/>
			<line class="st1" x1="244.71" y1="137.31" x2="244.71" y2="742.83"/>
			<line class="st1" x1="255.44" y1="137.31" x2="255.44" y2="742.83"/>
			<line class="st1" x1="266.17" y1="137.31" x2="266.17" y2="742.83"/>
			<line class="st1" x1="276.91" y1="137.31" x2="276.91" y2="742.83"/>
			<line class="st1" x1="287.64" y1="137.31" x2="287.64" y2="742.83"/>
			<line class="st1" x1="298.37" y1="137.31" x2="298.37" y2="742.83"/>
			<line class="st1" x1="309.11" y1="137.31" x2="309.11" y2="742.83"/>
			<line class="st1" x1="319.84" y1="137.31" x2="319.84" y2="742.83"/>
			<line class="st1" x1="330.58" y1="137.31" x2="330.58" y2="742.83"/>
			<line class="st1" x1="341.31" y1="137.31" x2="341.31" y2="742.83"/>
			<line class="st1" x1="352.04" y1="137.31" x2="352.04" y2="742.83"/>
			<line class="st1" x1="362.78" y1="137.31" x2="362.78" y2="742.83"/>
			<line class="st1" x1="373.51" y1="137.31" x2="373.51" y2="742.83"/>
			<line class="st1" x1="384.24" y1="137.31" x2="384.24" y2="742.83"/>
			<line class="st1" x1="394.98" y1="137.31" x2="394.98" y2="742.83"/>
			<line class="st1" x1="405.71" y1="137.31" x2="405.71" y2="742.83"/>
			<line class="st1" x1="416.45" y1="137.31" x2="416.45" y2="742.83"/>
			<line class="st1" x1="427.18" y1="137.31" x2="427.18" y2="742.83"/>
			<line class="st1" x1="437.91" y1="137.31" x2="437.91" y2="742.83"/>
			<line class="st1" x1="448.65" y1="137.31" x2="448.65" y2="742.83"/>
			<line class="st1" x1="459.38" y1="137.31" x2="459.38" y2="742.83"/>
			<line class="st1" x1="470.11" y1="137.31" x2="470.11" y2="742.83"/>
			<line class="st1" x1="480.85" y1="137.31" x2="480.85" y2="742.83"/>
			<line class="st1" x1="491.58" y1="137.31" x2="491.58" y2="742.83"/>
			<line class="st1" x1="502.31" y1="137.31" x2="502.31" y2="742.83"/>
			<line class="st1" x1="513.05" y1="137.31" x2="513.05" y2="742.83"/>
			<line class="st1" x1="523.78" y1="137.31" x2="523.78" y2="742.83"/>
			<line class="st1" x1="534.52" y1="137.31" x2="534.52" y2="742.83"/>
			<line class="st1" x1="545.25" y1="137.31" x2="545.25" y2="742.83"/>
			<line class="st1" x1="555.98" y1="137.31" x2="555.98" y2="742.83"/>
			<line class="st1" x1="566.72" y1="137.31" x2="566.72" y2="742.83"/>
			<line class="st1" x1="577.45" y1="137.31" x2="577.45" y2="742.83"/>
			<line class="st1" x1="588.18" y1="137.31" x2="588.18" y2="742.83"/>
			<line class="st1" x1="598.92" y1="137.31" x2="598.92" y2="742.83"/>
			<line class="st1" x1="609.65" y1="137.31" x2="609.65" y2="742.83"/>
			<line class="st1" x1="620.38" y1="137.31" x2="620.38" y2="742.83"/>
			<line class="st1" x1="631.12" y1="137.31" x2="631.12" y2="742.83"/>
		</g>

			<rect x="181.57" y="516.46" transform="matrix(6.123234e-17 -1 1 6.123234e-17 -316.9207 924.3951)" class="st2" width="244.34" height="208.39"/>

			<rect x="181.57" y="540.95" transform="matrix(6.123234e-17 -1 1 6.123234e-17 -316.9207 924.3951)" class="st2" width="244.34" height="159.42"/>
		<path class="st2" d="M382.9,498.49c0-43.72-35.44-79.17-79.17-79.17s-79.17,35.44-79.17,79.17"/>
		<path class="st2" d="M224.79,137.31c0,43.6,35.34,78.94,78.94,78.94s78.94-35.34,78.94-78.94"/>
		<circle class="st2" cx="303.74" cy="686.44" r="14.71"/>
		<line class="st2" x1="255.13" y1="706.15" x2="352.34" y2="704.15"/>
		<path class="st3" d="M41.9,742.83v-61.68c0-144.61,117.23-261.83,261.83-261.83s261.83,117.23,261.83,261.83v61.68"/>
		<g>
			<g>
				<path class="st2" d="M224.57,498.49c0,1,0.02,2,0.06,3"/>
				<path class="st4" d="M225.07,507.39c4.43,39.53,37.96,70.26,78.67,70.26c41.73,0,75.91-32.28,78.95-73.23"/>
				<path class="st2" d="M382.85,501.49c0.04-1,0.06-2,0.06-3"/>
			</g>
		</g>
		<path class="st3" d="M589.38,742.83V568.04c-47.03-105.55-156.76-179.57-284.64-179.57S67.12,462.49,20.1,568.04v0v174.79"/>
	</g>
	<rect x="-23.64" y="137.31" class="st2" width="654.75" height="605.52"/>
</g>
</svg>
