<?xml version="1.0" encoding="utf-8"?>
<!-- Generator: Adobe Illustrator 23.0.1, SVG Export Plug-In . SVG Version: 6.00 Build 0)  -->
<svg version="1.1" id="Layer_1" xmlns="http://www.w3.org/2000/svg" xmlns:xlink="http://www.w3.org/1999/xlink" x="0px" y="0px"
	 viewBox="0 0 589.3 544.1" style="enable-background:new 0 0 589.3 544.1;" xml:space="preserve">
<style type="text/css">
	.st0{fill:#FFDEA9;stroke:#FFFFFF;stroke-width:4;stroke-miterlimit:10;}
	.st1{opacity:0.1;fill:none;stroke:#A97C50;stroke-miterlimit:10;enable-background:new    ;}
	.st2{fill:none;stroke:#FFFFFF;stroke-width:4;stroke-miterlimit:10;}
	.st3{fill:none;stroke:#FFFFFF;stroke-width:3;stroke-miterlimit:10;}
	.st4{fill:none;stroke:#FFFFFF;stroke-width:4;stroke-miterlimit:10;stroke-dasharray:5.92,5.92;}
</style>
<g>
	<g>
		<rect class="st0" width="589.3" height="544.1"/>
		<g>
			<line class="st1" x1="0.5" y1="0" x2="0.5" y2="544.1"/>
			<line class="st1" x1="10.1" y1="0" x2="10.1" y2="544.1"/>
			<line class="st1" x1="19.8" y1="0" x2="19.8" y2="544.1"/>
			<line class="st1" x1="29.4" y1="0" x2="29.4" y2="544.1"/>
			<line class="st1" x1="39.1" y1="0" x2="39.1" y2="544.1"/>
			<line class="st1" x1="48.7" y1="0" x2="48.7" y2="544.1"/>
			<line class="st1" x1="58.4" y1="0" x2="58.4" y2="544.1"/>
			<line class="st1" x1="68" y1="0" x2="68" y2="544.1"/>
			<line class="st1" x1="77.6" y1="0" x2="77.6" y2="544.1"/>
			<line class="st1" x1="87.3" y1="0" x2="87.3" y2="544.1"/>
			<line class="st1" x1="96.9" y1="0" x2="96.9" y2="544.1"/>
			<line class="st1" x1="106.6" y1="0" x2="106.6" y2="544.1"/>
			<line class="st1" x1="116.2" y1="0" x2="116.2" y2="544.1"/>
			<line class="st1" x1="125.9" y1="0" x2="125.9" y2="544.1"/>
			<line class="st1" x1="135.5" y1="0" x2="135.5" y2="544.1"/>
			<line class="st1" x1="145.2" y1="0" x2="145.2" y2="544.1"/>
			<line class="st1" x1="154.8" y1="0" x2="154.8" y2="544.1"/>
			<line class="st1" x1="164.4" y1="0" x2="164.4" y2="544.1"/>
			<line class="st1" x1="174.1" y1="0" x2="174.1" y2="544.1"/>
			<line class="st1" x1="183.7" y1="0" x2="183.7" y2="544.1"/>
			<line class="st1" x1="193.4" y1="0" x2="193.4" y2="544.1"/>
			<line class="st1" x1="203" y1="0" x2="203" y2="544.1"/>
			<line class="st1" x1="212.7" y1="0" x2="212.7" y2="544.1"/>
			<line class="st1" x1="222.3" y1="0" x2="222.3" y2="544.1"/>
			<line class="st1" x1="232" y1="0" x2="232" y2="544.1"/>
			<line class="st1" x1="241.6" y1="0" x2="241.6" y2="544.1"/>
			<line class="st1" x1="251.2" y1="0" x2="251.2" y2="544.1"/>
			<line class="st1" x1="260.9" y1="0" x2="260.9" y2="544.1"/>
			<line class="st1" x1="270.5" y1="0" x2="270.5" y2="544.1"/>
			<line class="st1" x1="280.2" y1="0" x2="280.2" y2="544.1"/>
			<line class="st1" x1="289.8" y1="0" x2="289.8" y2="544.1"/>
			<line class="st1" x1="299.5" y1="0" x2="299.5" y2="544.1"/>
			<line class="st1" x1="309.1" y1="0" x2="309.1" y2="544.1"/>
			<line class="st1" x1="318.8" y1="0" x2="318.8" y2="544.1"/>
			<line class="st1" x1="328.4" y1="0" x2="328.4" y2="544.1"/>
			<line class="st1" x1="338" y1="0" x2="338" y2="544.1"/>
			<line class="st1" x1="347.7" y1="0" x2="347.7" y2="544.1"/>
			<line class="st1" x1="357.3" y1="0" x2="357.3" y2="544.1"/>
			<line class="st1" x1="367" y1="0" x2="367" y2="544.1"/>
			<line class="st1" x1="376.6" y1="0" x2="376.6" y2="544.1"/>
			<line class="st1" x1="386.3" y1="0" x2="386.3" y2="544.1"/>
			<line class="st1" x1="395.9" y1="0" x2="395.9" y2="544.1"/>
			<line class="st1" x1="405.6" y1="0" x2="405.6" y2="544.1"/>
			<line class="st1" x1="415.2" y1="0" x2="415.2" y2="544.1"/>
			<line class="st1" x1="424.9" y1="0" x2="424.9" y2="544.1"/>
			<line class="st1" x1="434.5" y1="0" x2="434.5" y2="544.1"/>
			<line class="st1" x1="444.1" y1="0" x2="444.1" y2="544.1"/>
			<line class="st1" x1="453.8" y1="0" x2="453.8" y2="544.1"/>
			<line class="st1" x1="463.4" y1="0" x2="463.4" y2="544.1"/>
			<line class="st1" x1="473.1" y1="0" x2="473.1" y2="544.1"/>
			<line class="st1" x1="482.7" y1="0" x2="482.7" y2="544.1"/>
			<line class="st1" x1="492.4" y1="0" x2="492.4" y2="544.1"/>
			<line class="st1" x1="502" y1="0" x2="502" y2="544.1"/>
			<line class="st1" x1="511.7" y1="0" x2="511.7" y2="544.1"/>
			<line class="st1" x1="521.3" y1="0" x2="521.3" y2="544.1"/>
			<line class="st1" x1="531" y1="0" x2="531" y2="544.1"/>
			<line class="st1" x1="540.6" y1="0" x2="540.6" y2="544.1"/>
			<line class="st1" x1="550.2" y1="0" x2="550.2" y2="544.1"/>
			<line class="st1" x1="559.9" y1="0" x2="559.9" y2="544.1"/>
			<line class="st1" x1="569.5" y1="0" x2="569.5" y2="544.1"/>
			<line class="st1" x1="579.2" y1="0" x2="579.2" y2="544.1"/>
			<line class="st1" x1="588.8" y1="0" x2="588.8" y2="544.1"/>
		</g>
		<rect x="201" y="324.5" class="st2" width="187.3" height="219.6"/>
		<rect x="223" y="324.5" class="st2" width="143.2" height="219.6"/>
		<path class="st2" d="M365.8,324.5c0-39.3-31.8-71.1-71.1-71.1s-71.1,31.8-71.1,71.1"/>
		<path class="st2" d="M223.7,0c0,39.2,31.8,70.9,70.9,70.9s71-31.7,71-70.9"/>
		<circle class="st2" cx="294.6" cy="493.4" r="13.2"/>
		<line class="st2" x1="251" y1="511.1" x2="338.3" y2="509.3"/>
		<path class="st3" d="M59.4,544.1v-55.4c0-129.9,105.3-235.3,235.3-235.3S530,358.7,530,488.7v55.4"/>
		<g>
			<g>
				<path class="st2" d="M223.5,324.5c0,0.9,0,1.8,0.1,2.7"/>
				<path class="st4" d="M224,332.5c4,35.5,34.1,63.1,70.7,63.1c37.5,0,68.2-29,70.9-65.8"/>
				<path class="st2" d="M365.7,327.2c0-0.9,0.1-1.8,0.1-2.7"/>
			</g>
		</g>
		<path class="st3" d="M561.3,544.1V387C509,292.2,410.4,225.6,295.5,225.6S72,292.2,29.8,387l0,0v157.1"/>
	</g>
	<rect x="0.5" class="st2" width="588.3" height="544.1"/>
</g>
</svg>
